ISO-10303-21;
HEADER;
/* Generated by software containing ST-Developer
 * from STEP Tools, Inc. (www.steptools.com) 
 */

FILE_DESCRIPTION(
/* description */ (''),
/* implementation_level */ '2;1');

FILE_NAME(
/* name */ 'cbc_slide_holder_r001.step',
/* time_stamp */ '2026-05-14T23:57:24-05:00',
/* author */ (''),
/* organization */ (''),
/* preprocessor_version */ 'ST-DEVELOPER v20.1',
/* originating_system */ 'Autodesk Translation Framework v15.8.0.0',
/* authorisation */ '');

FILE_SCHEMA (('AUTOMOTIVE_DESIGN { 1 0 10303 214 3 1 1 }'));
ENDSEC;

DATA;
#10=MECHANICAL_DESIGN_GEOMETRIC_PRESENTATION_REPRESENTATION('',(#13,#14,
#15,#16),#1350);
#11=SHAPE_REPRESENTATION_RELATIONSHIP('SRR','None',#1357,#12);
#12=ADVANCED_BREP_SHAPE_REPRESENTATION('',(#17,#18,#19,#20),#1349);
#13=STYLED_ITEM('',(#1366),#17);
#14=STYLED_ITEM('',(#1366),#18);
#15=STYLED_ITEM('',(#1366),#19);
#16=STYLED_ITEM('',(#1366),#20);
#17=MANIFOLD_SOLID_BREP('cbc_slide_holder_r001',#827);
#18=MANIFOLD_SOLID_BREP('left_retaining_tab',#828);
#19=MANIFOLD_SOLID_BREP('right_retaining_tab',#829);
#20=MANIFOLD_SOLID_BREP('rear_end_stop_tab',#830);
#21=FACE_BOUND('',#120,.T.);
#22=FACE_BOUND('',#121,.T.);
#23=FACE_BOUND('',#122,.T.);
#24=FACE_BOUND('',#123,.T.);
#25=FACE_BOUND('',#124,.T.);
#26=FACE_BOUND('',#125,.T.);
#27=FACE_BOUND('',#126,.T.);
#28=FACE_BOUND('',#129,.T.);
#29=FACE_BOUND('',#130,.T.);
#30=FACE_BOUND('',#131,.T.);
#31=FACE_BOUND('',#132,.T.);
#32=FACE_BOUND('',#133,.T.);
#33=FACE_BOUND('',#134,.T.);
#34=FACE_BOUND('',#135,.T.);
#35=FACE_BOUND('',#155,.T.);
#36=PLANE('',#847);
#37=PLANE('',#857);
#38=PLANE('',#864);
#39=PLANE('',#865);
#40=PLANE('',#868);
#41=PLANE('',#869);
#42=PLANE('',#874);
#43=PLANE('',#875);
#44=PLANE('',#876);
#45=PLANE('',#877);
#46=PLANE('',#878);
#47=PLANE('',#879);
#48=PLANE('',#880);
#49=PLANE('',#881);
#50=PLANE('',#882);
#51=PLANE('',#883);
#52=PLANE('',#884);
#53=PLANE('',#885);
#54=PLANE('',#886);
#55=PLANE('',#887);
#56=PLANE('',#888);
#57=PLANE('',#889);
#58=PLANE('',#890);
#59=PLANE('',#891);
#60=PLANE('',#892);
#61=PLANE('',#893);
#62=PLANE('',#894);
#63=PLANE('',#895);
#64=PLANE('',#896);
#65=PLANE('',#897);
#66=PLANE('',#898);
#67=PLANE('',#899);
#68=PLANE('',#900);
#69=PLANE('',#901);
#70=PLANE('',#902);
#71=PLANE('',#903);
#72=PLANE('',#904);
#73=FACE_OUTER_BOUND('',#118,.T.);
#74=FACE_OUTER_BOUND('',#119,.T.);
#75=FACE_OUTER_BOUND('',#127,.T.);
#76=FACE_OUTER_BOUND('',#128,.T.);
#77=FACE_OUTER_BOUND('',#136,.T.);
#78=FACE_OUTER_BOUND('',#137,.T.);
#79=FACE_OUTER_BOUND('',#138,.T.);
#80=FACE_OUTER_BOUND('',#139,.T.);
#81=FACE_OUTER_BOUND('',#140,.T.);
#82=FACE_OUTER_BOUND('',#141,.T.);
#83=FACE_OUTER_BOUND('',#142,.T.);
#84=FACE_OUTER_BOUND('',#143,.T.);
#85=FACE_OUTER_BOUND('',#144,.T.);
#86=FACE_OUTER_BOUND('',#145,.T.);
#87=FACE_OUTER_BOUND('',#146,.T.);
#88=FACE_OUTER_BOUND('',#147,.T.);
#89=FACE_OUTER_BOUND('',#148,.T.);
#90=FACE_OUTER_BOUND('',#149,.T.);
#91=FACE_OUTER_BOUND('',#150,.T.);
#92=FACE_OUTER_BOUND('',#151,.T.);
#93=FACE_OUTER_BOUND('',#152,.T.);
#94=FACE_OUTER_BOUND('',#153,.T.);
#95=FACE_OUTER_BOUND('',#154,.T.);
#96=FACE_OUTER_BOUND('',#156,.T.);
#97=FACE_OUTER_BOUND('',#157,.T.);
#98=FACE_OUTER_BOUND('',#158,.T.);
#99=FACE_OUTER_BOUND('',#159,.T.);
#100=FACE_OUTER_BOUND('',#160,.T.);
#101=FACE_OUTER_BOUND('',#161,.T.);
#102=FACE_OUTER_BOUND('',#162,.T.);
#103=FACE_OUTER_BOUND('',#163,.T.);
#104=FACE_OUTER_BOUND('',#164,.T.);
#105=FACE_OUTER_BOUND('',#165,.T.);
#106=FACE_OUTER_BOUND('',#166,.T.);
#107=FACE_OUTER_BOUND('',#167,.T.);
#108=FACE_OUTER_BOUND('',#168,.T.);
#109=FACE_OUTER_BOUND('',#169,.T.);
#110=FACE_OUTER_BOUND('',#170,.T.);
#111=FACE_OUTER_BOUND('',#171,.T.);
#112=FACE_OUTER_BOUND('',#172,.T.);
#113=FACE_OUTER_BOUND('',#173,.T.);
#114=FACE_OUTER_BOUND('',#174,.T.);
#115=FACE_OUTER_BOUND('',#175,.T.);
#116=FACE_OUTER_BOUND('',#176,.T.);
#117=FACE_OUTER_BOUND('',#177,.T.);
#118=EDGE_LOOP('',(#558,#559,#560,#561));
#119=EDGE_LOOP('',(#562,#563,#564,#565));
#120=EDGE_LOOP('',(#566,#567,#568,#569));
#121=EDGE_LOOP('',(#570));
#122=EDGE_LOOP('',(#571));
#123=EDGE_LOOP('',(#572));
#124=EDGE_LOOP('',(#573));
#125=EDGE_LOOP('',(#574,#575,#576,#577));
#126=EDGE_LOOP('',(#578,#579,#580,#581));
#127=EDGE_LOOP('',(#582,#583,#584,#585));
#128=EDGE_LOOP('',(#586,#587,#588,#589));
#129=EDGE_LOOP('',(#590,#591,#592,#593));
#130=EDGE_LOOP('',(#594));
#131=EDGE_LOOP('',(#595));
#132=EDGE_LOOP('',(#596));
#133=EDGE_LOOP('',(#597));
#134=EDGE_LOOP('',(#598,#599,#600,#601));
#135=EDGE_LOOP('',(#602,#603,#604,#605));
#136=EDGE_LOOP('',(#606,#607,#608,#609));
#137=EDGE_LOOP('',(#610,#611,#612,#613));
#138=EDGE_LOOP('',(#614,#615,#616,#617));
#139=EDGE_LOOP('',(#618,#619,#620,#621));
#140=EDGE_LOOP('',(#622,#623,#624,#625));
#141=EDGE_LOOP('',(#626,#627,#628,#629));
#142=EDGE_LOOP('',(#630,#631,#632,#633));
#143=EDGE_LOOP('',(#634,#635,#636,#637));
#144=EDGE_LOOP('',(#638,#639,#640,#641));
#145=EDGE_LOOP('',(#642,#643,#644,#645));
#146=EDGE_LOOP('',(#646,#647,#648,#649));
#147=EDGE_LOOP('',(#650,#651,#652,#653));
#148=EDGE_LOOP('',(#654,#655,#656,#657));
#149=EDGE_LOOP('',(#658,#659,#660,#661));
#150=EDGE_LOOP('',(#662,#663,#664,#665));
#151=EDGE_LOOP('',(#666,#667,#668,#669));
#152=EDGE_LOOP('',(#670,#671,#672,#673));
#153=EDGE_LOOP('',(#674,#675,#676,#677));
#154=EDGE_LOOP('',(#678,#679,#680,#681));
#155=EDGE_LOOP('',(#682,#683,#684,#685));
#156=EDGE_LOOP('',(#686,#687,#688,#689));
#157=EDGE_LOOP('',(#690,#691,#692,#693));
#158=EDGE_LOOP('',(#694,#695,#696,#697));
#159=EDGE_LOOP('',(#698,#699,#700,#701));
#160=EDGE_LOOP('',(#702,#703,#704,#705));
#161=EDGE_LOOP('',(#706,#707,#708,#709));
#162=EDGE_LOOP('',(#710,#711,#712,#713));
#163=EDGE_LOOP('',(#714,#715,#716,#717));
#164=EDGE_LOOP('',(#718,#719,#720,#721));
#165=EDGE_LOOP('',(#722,#723,#724,#725));
#166=EDGE_LOOP('',(#726,#727,#728,#729));
#167=EDGE_LOOP('',(#730,#731,#732,#733));
#168=EDGE_LOOP('',(#734,#735,#736,#737));
#169=EDGE_LOOP('',(#738,#739,#740,#741));
#170=EDGE_LOOP('',(#742,#743,#744,#745));
#171=EDGE_LOOP('',(#746,#747,#748,#749));
#172=EDGE_LOOP('',(#750,#751,#752,#753));
#173=EDGE_LOOP('',(#754,#755,#756,#757));
#174=EDGE_LOOP('',(#758,#759,#760,#761));
#175=EDGE_LOOP('',(#762,#763,#764,#765));
#176=EDGE_LOOP('',(#766,#767,#768,#769));
#177=EDGE_LOOP('',(#770,#771,#772,#773));
#178=CIRCLE('',#845,1.6);
#179=CIRCLE('',#846,1.6);
#180=CIRCLE('',#848,1.6);
#181=CIRCLE('',#849,1.6);
#182=CIRCLE('',#850,1.6);
#183=CIRCLE('',#851,1.6);
#184=CIRCLE('',#852,1.6);
#185=CIRCLE('',#853,1.6);
#186=CIRCLE('',#854,1.6);
#187=CIRCLE('',#856,1.6);
#188=CIRCLE('',#858,1.6);
#189=CIRCLE('',#859,1.6);
#190=CIRCLE('',#860,1.6);
#191=CIRCLE('',#861,1.6);
#192=CIRCLE('',#862,1.6);
#193=CIRCLE('',#863,1.6);
#194=LINE('',#1125,#286);
#195=LINE('',#1129,#287);
#196=LINE('',#1134,#288);
#197=LINE('',#1136,#289);
#198=LINE('',#1138,#290);
#199=LINE('',#1139,#291);
#200=LINE('',#1144,#292);
#201=LINE('',#1147,#293);
#202=LINE('',#1158,#294);
#203=LINE('',#1160,#295);
#204=LINE('',#1162,#296);
#205=LINE('',#1163,#297);
#206=LINE('',#1165,#298);
#207=LINE('',#1168,#299);
#208=LINE('',#1171,#300);
#209=LINE('',#1173,#301);
#210=LINE('',#1178,#302);
#211=LINE('',#1180,#303);
#212=LINE('',#1182,#304);
#213=LINE('',#1183,#305);
#214=LINE('',#1184,#306);
#215=LINE('',#1185,#307);
#216=LINE('',#1196,#308);
#217=LINE('',#1198,#309);
#218=LINE('',#1200,#310);
#219=LINE('',#1201,#311);
#220=LINE('',#1206,#312);
#221=LINE('',#1209,#313);
#222=LINE('',#1213,#314);
#223=LINE('',#1214,#315);
#224=LINE('',#1216,#316);
#225=LINE('',#1217,#317);
#226=LINE('',#1221,#318);
#227=LINE('',#1223,#319);
#228=LINE('',#1225,#320);
#229=LINE('',#1227,#321);
#230=LINE('',#1231,#322);
#231=LINE('',#1232,#323);
#232=LINE('',#1233,#324);
#233=LINE('',#1236,#325);
#234=LINE('',#1237,#326);
#235=LINE('',#1240,#327);
#236=LINE('',#1241,#328);
#237=LINE('',#1243,#329);
#238=LINE('',#1246,#330);
#239=LINE('',#1248,#331);
#240=LINE('',#1249,#332);
#241=LINE('',#1252,#333);
#242=LINE('',#1253,#334);
#243=LINE('',#1256,#335);
#244=LINE('',#1257,#336);
#245=LINE('',#1259,#337);
#246=LINE('',#1262,#338);
#247=LINE('',#1263,#339);
#248=LINE('',#1265,#340);
#249=LINE('',#1267,#341);
#250=LINE('',#1272,#342);
#251=LINE('',#1274,#343);
#252=LINE('',#1276,#344);
#253=LINE('',#1277,#345);
#254=LINE('',#1280,#346);
#255=LINE('',#1282,#347);
#256=LINE('',#1283,#348);
#257=LINE('',#1286,#349);
#258=LINE('',#1288,#350);
#259=LINE('',#1289,#351);
#260=LINE('',#1291,#352);
#261=LINE('',#1292,#353);
#262=LINE('',#1298,#354);
#263=LINE('',#1300,#355);
#264=LINE('',#1302,#356);
#265=LINE('',#1303,#357);
#266=LINE('',#1306,#358);
#267=LINE('',#1308,#359);
#268=LINE('',#1309,#360);
#269=LINE('',#1312,#361);
#270=LINE('',#1314,#362);
#271=LINE('',#1315,#363);
#272=LINE('',#1317,#364);
#273=LINE('',#1318,#365);
#274=LINE('',#1324,#366);
#275=LINE('',#1326,#367);
#276=LINE('',#1328,#368);
#277=LINE('',#1329,#369);
#278=LINE('',#1332,#370);
#279=LINE('',#1334,#371);
#280=LINE('',#1335,#372);
#281=LINE('',#1338,#373);
#282=LINE('',#1340,#374);
#283=LINE('',#1341,#375);
#284=LINE('',#1343,#376);
#285=LINE('',#1344,#377);
#286=VECTOR('',#909,10.);
#287=VECTOR('',#912,10.);
#288=VECTOR('',#917,10.);
#289=VECTOR('',#918,10.);
#290=VECTOR('',#919,10.);
#291=VECTOR('',#920,10.);
#292=VECTOR('',#923,10.);
#293=VECTOR('',#926,10.);
#294=VECTOR('',#935,10.);
#295=VECTOR('',#936,10.);
#296=VECTOR('',#937,10.);
#297=VECTOR('',#938,10.);
#298=VECTOR('',#939,10.);
#299=VECTOR('',#942,10.);
#300=VECTOR('',#945,10.);
#301=VECTOR('',#946,10.);
#302=VECTOR('',#951,10.);
#303=VECTOR('',#952,10.);
#304=VECTOR('',#953,10.);
#305=VECTOR('',#954,10.);
#306=VECTOR('',#955,10.);
#307=VECTOR('',#956,10.);
#308=VECTOR('',#965,10.);
#309=VECTOR('',#966,10.);
#310=VECTOR('',#967,10.);
#311=VECTOR('',#968,10.);
#312=VECTOR('',#971,10.);
#313=VECTOR('',#974,10.);
#314=VECTOR('',#981,10.);
#315=VECTOR('',#982,10.);
#316=VECTOR('',#985,10.);
#317=VECTOR('',#986,10.);
#318=VECTOR('',#993,1.6);
#319=VECTOR('',#996,1.6);
#320=VECTOR('',#999,1.6);
#321=VECTOR('',#1002,1.6);
#322=VECTOR('',#1005,10.);
#323=VECTOR('',#1006,10.);
#324=VECTOR('',#1007,10.);
#325=VECTOR('',#1010,10.);
#326=VECTOR('',#1011,10.);
#327=VECTOR('',#1014,10.);
#328=VECTOR('',#1015,10.);
#329=VECTOR('',#1018,10.);
#330=VECTOR('',#1021,10.);
#331=VECTOR('',#1022,10.);
#332=VECTOR('',#1023,10.);
#333=VECTOR('',#1026,10.);
#334=VECTOR('',#1027,10.);
#335=VECTOR('',#1030,10.);
#336=VECTOR('',#1031,10.);
#337=VECTOR('',#1034,10.);
#338=VECTOR('',#1039,10.);
#339=VECTOR('',#1040,10.);
#340=VECTOR('',#1043,10.);
#341=VECTOR('',#1046,10.);
#342=VECTOR('',#1051,10.);
#343=VECTOR('',#1052,10.);
#344=VECTOR('',#1053,10.);
#345=VECTOR('',#1054,10.);
#346=VECTOR('',#1057,10.);
#347=VECTOR('',#1058,10.);
#348=VECTOR('',#1059,10.);
#349=VECTOR('',#1062,10.);
#350=VECTOR('',#1063,10.);
#351=VECTOR('',#1064,10.);
#352=VECTOR('',#1067,10.);
#353=VECTOR('',#1068,10.);
#354=VECTOR('',#1075,10.);
#355=VECTOR('',#1076,10.);
#356=VECTOR('',#1077,10.);
#357=VECTOR('',#1078,10.);
#358=VECTOR('',#1081,10.);
#359=VECTOR('',#1082,10.);
#360=VECTOR('',#1083,10.);
#361=VECTOR('',#1086,10.);
#362=VECTOR('',#1087,10.);
#363=VECTOR('',#1088,10.);
#364=VECTOR('',#1091,10.);
#365=VECTOR('',#1092,10.);
#366=VECTOR('',#1099,10.);
#367=VECTOR('',#1100,10.);
#368=VECTOR('',#1101,10.);
#369=VECTOR('',#1102,10.);
#370=VECTOR('',#1105,10.);
#371=VECTOR('',#1106,10.);
#372=VECTOR('',#1107,10.);
#373=VECTOR('',#1110,10.);
#374=VECTOR('',#1111,10.);
#375=VECTOR('',#1112,10.);
#376=VECTOR('',#1115,10.);
#377=VECTOR('',#1116,10.);
#378=VERTEX_POINT('',#1123);
#379=VERTEX_POINT('',#1124);
#380=VERTEX_POINT('',#1126);
#381=VERTEX_POINT('',#1128);
#382=VERTEX_POINT('',#1132);
#383=VERTEX_POINT('',#1133);
#384=VERTEX_POINT('',#1135);
#385=VERTEX_POINT('',#1137);
#386=VERTEX_POINT('',#1140);
#387=VERTEX_POINT('',#1141);
#388=VERTEX_POINT('',#1143);
#389=VERTEX_POINT('',#1145);
#390=VERTEX_POINT('',#1148);
#391=VERTEX_POINT('',#1150);
#392=VERTEX_POINT('',#1152);
#393=VERTEX_POINT('',#1154);
#394=VERTEX_POINT('',#1156);
#395=VERTEX_POINT('',#1157);
#396=VERTEX_POINT('',#1159);
#397=VERTEX_POINT('',#1161);
#398=VERTEX_POINT('',#1164);
#399=VERTEX_POINT('',#1166);
#400=VERTEX_POINT('',#1170);
#401=VERTEX_POINT('',#1172);
#402=VERTEX_POINT('',#1176);
#403=VERTEX_POINT('',#1177);
#404=VERTEX_POINT('',#1179);
#405=VERTEX_POINT('',#1181);
#406=VERTEX_POINT('',#1186);
#407=VERTEX_POINT('',#1188);
#408=VERTEX_POINT('',#1190);
#409=VERTEX_POINT('',#1192);
#410=VERTEX_POINT('',#1194);
#411=VERTEX_POINT('',#1195);
#412=VERTEX_POINT('',#1197);
#413=VERTEX_POINT('',#1199);
#414=VERTEX_POINT('',#1202);
#415=VERTEX_POINT('',#1203);
#416=VERTEX_POINT('',#1205);
#417=VERTEX_POINT('',#1207);
#418=VERTEX_POINT('',#1229);
#419=VERTEX_POINT('',#1230);
#420=VERTEX_POINT('',#1235);
#421=VERTEX_POINT('',#1239);
#422=VERTEX_POINT('',#1245);
#423=VERTEX_POINT('',#1247);
#424=VERTEX_POINT('',#1251);
#425=VERTEX_POINT('',#1255);
#426=VERTEX_POINT('',#1270);
#427=VERTEX_POINT('',#1271);
#428=VERTEX_POINT('',#1273);
#429=VERTEX_POINT('',#1275);
#430=VERTEX_POINT('',#1279);
#431=VERTEX_POINT('',#1281);
#432=VERTEX_POINT('',#1285);
#433=VERTEX_POINT('',#1287);
#434=VERTEX_POINT('',#1296);
#435=VERTEX_POINT('',#1297);
#436=VERTEX_POINT('',#1299);
#437=VERTEX_POINT('',#1301);
#438=VERTEX_POINT('',#1305);
#439=VERTEX_POINT('',#1307);
#440=VERTEX_POINT('',#1311);
#441=VERTEX_POINT('',#1313);
#442=VERTEX_POINT('',#1322);
#443=VERTEX_POINT('',#1323);
#444=VERTEX_POINT('',#1325);
#445=VERTEX_POINT('',#1327);
#446=VERTEX_POINT('',#1331);
#447=VERTEX_POINT('',#1333);
#448=VERTEX_POINT('',#1337);
#449=VERTEX_POINT('',#1339);
#450=EDGE_CURVE('',#378,#379,#194,.T.);
#451=EDGE_CURVE('',#380,#378,#178,.T.);
#452=EDGE_CURVE('',#380,#381,#195,.T.);
#453=EDGE_CURVE('',#379,#381,#179,.T.);
#454=EDGE_CURVE('',#382,#383,#196,.T.);
#455=EDGE_CURVE('',#383,#384,#197,.T.);
#456=EDGE_CURVE('',#384,#385,#198,.T.);
#457=EDGE_CURVE('',#385,#382,#199,.T.);
#458=EDGE_CURVE('',#386,#387,#180,.T.);
#459=EDGE_CURVE('',#387,#388,#200,.T.);
#460=EDGE_CURVE('',#388,#389,#181,.T.);
#461=EDGE_CURVE('',#389,#386,#201,.T.);
#462=EDGE_CURVE('',#390,#390,#182,.T.);
#463=EDGE_CURVE('',#391,#391,#183,.T.);
#464=EDGE_CURVE('',#392,#392,#184,.T.);
#465=EDGE_CURVE('',#393,#393,#185,.T.);
#466=EDGE_CURVE('',#394,#395,#202,.T.);
#467=EDGE_CURVE('',#395,#396,#203,.T.);
#468=EDGE_CURVE('',#396,#397,#204,.T.);
#469=EDGE_CURVE('',#397,#394,#205,.T.);
#470=EDGE_CURVE('',#381,#398,#206,.T.);
#471=EDGE_CURVE('',#398,#399,#186,.T.);
#472=EDGE_CURVE('',#399,#379,#207,.T.);
#473=EDGE_CURVE('',#400,#399,#208,.T.);
#474=EDGE_CURVE('',#401,#398,#209,.T.);
#475=EDGE_CURVE('',#400,#401,#187,.T.);
#476=EDGE_CURVE('',#402,#403,#210,.T.);
#477=EDGE_CURVE('',#404,#402,#211,.T.);
#478=EDGE_CURVE('',#405,#404,#212,.T.);
#479=EDGE_CURVE('',#403,#405,#213,.T.);
#480=EDGE_CURVE('',#378,#400,#214,.T.);
#481=EDGE_CURVE('',#401,#380,#215,.T.);
#482=EDGE_CURVE('',#406,#406,#188,.T.);
#483=EDGE_CURVE('',#407,#407,#189,.T.);
#484=EDGE_CURVE('',#408,#408,#190,.T.);
#485=EDGE_CURVE('',#409,#409,#191,.T.);
#486=EDGE_CURVE('',#410,#411,#216,.T.);
#487=EDGE_CURVE('',#411,#412,#217,.T.);
#488=EDGE_CURVE('',#412,#413,#218,.T.);
#489=EDGE_CURVE('',#413,#410,#219,.T.);
#490=EDGE_CURVE('',#414,#415,#192,.T.);
#491=EDGE_CURVE('',#415,#416,#220,.T.);
#492=EDGE_CURVE('',#416,#417,#193,.T.);
#493=EDGE_CURVE('',#417,#414,#221,.T.);
#494=EDGE_CURVE('',#415,#386,#222,.T.);
#495=EDGE_CURVE('',#414,#387,#223,.T.);
#496=EDGE_CURVE('',#416,#389,#224,.T.);
#497=EDGE_CURVE('',#417,#388,#225,.T.);
#498=EDGE_CURVE('',#406,#390,#226,.T.);
#499=EDGE_CURVE('',#407,#391,#227,.T.);
#500=EDGE_CURVE('',#408,#392,#228,.T.);
#501=EDGE_CURVE('',#409,#393,#229,.T.);
#502=EDGE_CURVE('',#418,#419,#230,.T.);
#503=EDGE_CURVE('',#413,#418,#231,.T.);
#504=EDGE_CURVE('',#412,#419,#232,.T.);
#505=EDGE_CURVE('',#419,#420,#233,.T.);
#506=EDGE_CURVE('',#411,#420,#234,.T.);
#507=EDGE_CURVE('',#420,#421,#235,.T.);
#508=EDGE_CURVE('',#410,#421,#236,.T.);
#509=EDGE_CURVE('',#421,#418,#237,.T.);
#510=EDGE_CURVE('',#394,#422,#238,.T.);
#511=EDGE_CURVE('',#422,#423,#239,.T.);
#512=EDGE_CURVE('',#395,#423,#240,.T.);
#513=EDGE_CURVE('',#397,#424,#241,.T.);
#514=EDGE_CURVE('',#424,#422,#242,.T.);
#515=EDGE_CURVE('',#396,#425,#243,.T.);
#516=EDGE_CURVE('',#425,#424,#244,.T.);
#517=EDGE_CURVE('',#423,#425,#245,.T.);
#518=EDGE_CURVE('',#402,#382,#246,.T.);
#519=EDGE_CURVE('',#404,#385,#247,.T.);
#520=EDGE_CURVE('',#405,#384,#248,.T.);
#521=EDGE_CURVE('',#403,#383,#249,.T.);
#522=EDGE_CURVE('',#426,#427,#250,.T.);
#523=EDGE_CURVE('',#427,#428,#251,.T.);
#524=EDGE_CURVE('',#429,#428,#252,.T.);
#525=EDGE_CURVE('',#426,#429,#253,.T.);
#526=EDGE_CURVE('',#430,#426,#254,.T.);
#527=EDGE_CURVE('',#431,#429,#255,.T.);
#528=EDGE_CURVE('',#430,#431,#256,.T.);
#529=EDGE_CURVE('',#432,#430,#257,.T.);
#530=EDGE_CURVE('',#433,#431,#258,.T.);
#531=EDGE_CURVE('',#432,#433,#259,.T.);
#532=EDGE_CURVE('',#427,#432,#260,.T.);
#533=EDGE_CURVE('',#428,#433,#261,.T.);
#534=EDGE_CURVE('',#434,#435,#262,.T.);
#535=EDGE_CURVE('',#435,#436,#263,.T.);
#536=EDGE_CURVE('',#437,#436,#264,.T.);
#537=EDGE_CURVE('',#434,#437,#265,.T.);
#538=EDGE_CURVE('',#438,#434,#266,.T.);
#539=EDGE_CURVE('',#439,#437,#267,.T.);
#540=EDGE_CURVE('',#438,#439,#268,.T.);
#541=EDGE_CURVE('',#440,#438,#269,.T.);
#542=EDGE_CURVE('',#441,#439,#270,.T.);
#543=EDGE_CURVE('',#440,#441,#271,.T.);
#544=EDGE_CURVE('',#435,#440,#272,.T.);
#545=EDGE_CURVE('',#436,#441,#273,.T.);
#546=EDGE_CURVE('',#442,#443,#274,.T.);
#547=EDGE_CURVE('',#443,#444,#275,.T.);
#548=EDGE_CURVE('',#445,#444,#276,.T.);
#549=EDGE_CURVE('',#442,#445,#277,.T.);
#550=EDGE_CURVE('',#446,#442,#278,.T.);
#551=EDGE_CURVE('',#447,#445,#279,.T.);
#552=EDGE_CURVE('',#446,#447,#280,.T.);
#553=EDGE_CURVE('',#448,#446,#281,.T.);
#554=EDGE_CURVE('',#449,#447,#282,.T.);
#555=EDGE_CURVE('',#448,#449,#283,.T.);
#556=EDGE_CURVE('',#443,#448,#284,.T.);
#557=EDGE_CURVE('',#444,#449,#285,.T.);
#558=ORIENTED_EDGE('',*,*,#450,.F.);
#559=ORIENTED_EDGE('',*,*,#451,.F.);
#560=ORIENTED_EDGE('',*,*,#452,.T.);
#561=ORIENTED_EDGE('',*,*,#453,.F.);
#562=ORIENTED_EDGE('',*,*,#454,.T.);
#563=ORIENTED_EDGE('',*,*,#455,.T.);
#564=ORIENTED_EDGE('',*,*,#456,.T.);
#565=ORIENTED_EDGE('',*,*,#457,.T.);
#566=ORIENTED_EDGE('',*,*,#458,.T.);
#567=ORIENTED_EDGE('',*,*,#459,.T.);
#568=ORIENTED_EDGE('',*,*,#460,.T.);
#569=ORIENTED_EDGE('',*,*,#461,.T.);
#570=ORIENTED_EDGE('',*,*,#462,.T.);
#571=ORIENTED_EDGE('',*,*,#463,.T.);
#572=ORIENTED_EDGE('',*,*,#464,.T.);
#573=ORIENTED_EDGE('',*,*,#465,.T.);
#574=ORIENTED_EDGE('',*,*,#466,.T.);
#575=ORIENTED_EDGE('',*,*,#467,.T.);
#576=ORIENTED_EDGE('',*,*,#468,.T.);
#577=ORIENTED_EDGE('',*,*,#469,.T.);
#578=ORIENTED_EDGE('',*,*,#453,.T.);
#579=ORIENTED_EDGE('',*,*,#470,.T.);
#580=ORIENTED_EDGE('',*,*,#471,.T.);
#581=ORIENTED_EDGE('',*,*,#472,.T.);
#582=ORIENTED_EDGE('',*,*,#473,.T.);
#583=ORIENTED_EDGE('',*,*,#471,.F.);
#584=ORIENTED_EDGE('',*,*,#474,.F.);
#585=ORIENTED_EDGE('',*,*,#475,.F.);
#586=ORIENTED_EDGE('',*,*,#476,.F.);
#587=ORIENTED_EDGE('',*,*,#477,.F.);
#588=ORIENTED_EDGE('',*,*,#478,.F.);
#589=ORIENTED_EDGE('',*,*,#479,.F.);
#590=ORIENTED_EDGE('',*,*,#451,.T.);
#591=ORIENTED_EDGE('',*,*,#480,.T.);
#592=ORIENTED_EDGE('',*,*,#475,.T.);
#593=ORIENTED_EDGE('',*,*,#481,.T.);
#594=ORIENTED_EDGE('',*,*,#482,.T.);
#595=ORIENTED_EDGE('',*,*,#483,.T.);
#596=ORIENTED_EDGE('',*,*,#484,.T.);
#597=ORIENTED_EDGE('',*,*,#485,.T.);
#598=ORIENTED_EDGE('',*,*,#486,.T.);
#599=ORIENTED_EDGE('',*,*,#487,.T.);
#600=ORIENTED_EDGE('',*,*,#488,.T.);
#601=ORIENTED_EDGE('',*,*,#489,.T.);
#602=ORIENTED_EDGE('',*,*,#490,.T.);
#603=ORIENTED_EDGE('',*,*,#491,.T.);
#604=ORIENTED_EDGE('',*,*,#492,.T.);
#605=ORIENTED_EDGE('',*,*,#493,.T.);
#606=ORIENTED_EDGE('',*,*,#472,.F.);
#607=ORIENTED_EDGE('',*,*,#473,.F.);
#608=ORIENTED_EDGE('',*,*,#480,.F.);
#609=ORIENTED_EDGE('',*,*,#450,.T.);
#610=ORIENTED_EDGE('',*,*,#470,.F.);
#611=ORIENTED_EDGE('',*,*,#452,.F.);
#612=ORIENTED_EDGE('',*,*,#481,.F.);
#613=ORIENTED_EDGE('',*,*,#474,.T.);
#614=ORIENTED_EDGE('',*,*,#494,.F.);
#615=ORIENTED_EDGE('',*,*,#490,.F.);
#616=ORIENTED_EDGE('',*,*,#495,.T.);
#617=ORIENTED_EDGE('',*,*,#458,.F.);
#618=ORIENTED_EDGE('',*,*,#496,.T.);
#619=ORIENTED_EDGE('',*,*,#460,.F.);
#620=ORIENTED_EDGE('',*,*,#497,.F.);
#621=ORIENTED_EDGE('',*,*,#492,.F.);
#622=ORIENTED_EDGE('',*,*,#461,.F.);
#623=ORIENTED_EDGE('',*,*,#496,.F.);
#624=ORIENTED_EDGE('',*,*,#491,.F.);
#625=ORIENTED_EDGE('',*,*,#494,.T.);
#626=ORIENTED_EDGE('',*,*,#459,.F.);
#627=ORIENTED_EDGE('',*,*,#495,.F.);
#628=ORIENTED_EDGE('',*,*,#493,.F.);
#629=ORIENTED_EDGE('',*,*,#497,.T.);
#630=ORIENTED_EDGE('',*,*,#482,.F.);
#631=ORIENTED_EDGE('',*,*,#498,.T.);
#632=ORIENTED_EDGE('',*,*,#462,.F.);
#633=ORIENTED_EDGE('',*,*,#498,.F.);
#634=ORIENTED_EDGE('',*,*,#483,.F.);
#635=ORIENTED_EDGE('',*,*,#499,.T.);
#636=ORIENTED_EDGE('',*,*,#463,.F.);
#637=ORIENTED_EDGE('',*,*,#499,.F.);
#638=ORIENTED_EDGE('',*,*,#484,.F.);
#639=ORIENTED_EDGE('',*,*,#500,.T.);
#640=ORIENTED_EDGE('',*,*,#464,.F.);
#641=ORIENTED_EDGE('',*,*,#500,.F.);
#642=ORIENTED_EDGE('',*,*,#485,.F.);
#643=ORIENTED_EDGE('',*,*,#501,.T.);
#644=ORIENTED_EDGE('',*,*,#465,.F.);
#645=ORIENTED_EDGE('',*,*,#501,.F.);
#646=ORIENTED_EDGE('',*,*,#502,.F.);
#647=ORIENTED_EDGE('',*,*,#503,.F.);
#648=ORIENTED_EDGE('',*,*,#488,.F.);
#649=ORIENTED_EDGE('',*,*,#504,.T.);
#650=ORIENTED_EDGE('',*,*,#505,.F.);
#651=ORIENTED_EDGE('',*,*,#504,.F.);
#652=ORIENTED_EDGE('',*,*,#487,.F.);
#653=ORIENTED_EDGE('',*,*,#506,.T.);
#654=ORIENTED_EDGE('',*,*,#507,.F.);
#655=ORIENTED_EDGE('',*,*,#506,.F.);
#656=ORIENTED_EDGE('',*,*,#486,.F.);
#657=ORIENTED_EDGE('',*,*,#508,.T.);
#658=ORIENTED_EDGE('',*,*,#509,.F.);
#659=ORIENTED_EDGE('',*,*,#508,.F.);
#660=ORIENTED_EDGE('',*,*,#489,.F.);
#661=ORIENTED_EDGE('',*,*,#503,.T.);
#662=ORIENTED_EDGE('',*,*,#466,.F.);
#663=ORIENTED_EDGE('',*,*,#510,.T.);
#664=ORIENTED_EDGE('',*,*,#511,.T.);
#665=ORIENTED_EDGE('',*,*,#512,.F.);
#666=ORIENTED_EDGE('',*,*,#469,.F.);
#667=ORIENTED_EDGE('',*,*,#513,.T.);
#668=ORIENTED_EDGE('',*,*,#514,.T.);
#669=ORIENTED_EDGE('',*,*,#510,.F.);
#670=ORIENTED_EDGE('',*,*,#468,.F.);
#671=ORIENTED_EDGE('',*,*,#515,.T.);
#672=ORIENTED_EDGE('',*,*,#516,.T.);
#673=ORIENTED_EDGE('',*,*,#513,.F.);
#674=ORIENTED_EDGE('',*,*,#467,.F.);
#675=ORIENTED_EDGE('',*,*,#512,.T.);
#676=ORIENTED_EDGE('',*,*,#517,.T.);
#677=ORIENTED_EDGE('',*,*,#515,.F.);
#678=ORIENTED_EDGE('',*,*,#517,.F.);
#679=ORIENTED_EDGE('',*,*,#511,.F.);
#680=ORIENTED_EDGE('',*,*,#514,.F.);
#681=ORIENTED_EDGE('',*,*,#516,.F.);
#682=ORIENTED_EDGE('',*,*,#507,.T.);
#683=ORIENTED_EDGE('',*,*,#509,.T.);
#684=ORIENTED_EDGE('',*,*,#502,.T.);
#685=ORIENTED_EDGE('',*,*,#505,.T.);
#686=ORIENTED_EDGE('',*,*,#477,.T.);
#687=ORIENTED_EDGE('',*,*,#518,.T.);
#688=ORIENTED_EDGE('',*,*,#457,.F.);
#689=ORIENTED_EDGE('',*,*,#519,.F.);
#690=ORIENTED_EDGE('',*,*,#478,.T.);
#691=ORIENTED_EDGE('',*,*,#519,.T.);
#692=ORIENTED_EDGE('',*,*,#456,.F.);
#693=ORIENTED_EDGE('',*,*,#520,.F.);
#694=ORIENTED_EDGE('',*,*,#479,.T.);
#695=ORIENTED_EDGE('',*,*,#520,.T.);
#696=ORIENTED_EDGE('',*,*,#455,.F.);
#697=ORIENTED_EDGE('',*,*,#521,.F.);
#698=ORIENTED_EDGE('',*,*,#476,.T.);
#699=ORIENTED_EDGE('',*,*,#521,.T.);
#700=ORIENTED_EDGE('',*,*,#454,.F.);
#701=ORIENTED_EDGE('',*,*,#518,.F.);
#702=ORIENTED_EDGE('',*,*,#522,.T.);
#703=ORIENTED_EDGE('',*,*,#523,.T.);
#704=ORIENTED_EDGE('',*,*,#524,.F.);
#705=ORIENTED_EDGE('',*,*,#525,.F.);
#706=ORIENTED_EDGE('',*,*,#526,.T.);
#707=ORIENTED_EDGE('',*,*,#525,.T.);
#708=ORIENTED_EDGE('',*,*,#527,.F.);
#709=ORIENTED_EDGE('',*,*,#528,.F.);
#710=ORIENTED_EDGE('',*,*,#529,.T.);
#711=ORIENTED_EDGE('',*,*,#528,.T.);
#712=ORIENTED_EDGE('',*,*,#530,.F.);
#713=ORIENTED_EDGE('',*,*,#531,.F.);
#714=ORIENTED_EDGE('',*,*,#532,.T.);
#715=ORIENTED_EDGE('',*,*,#531,.T.);
#716=ORIENTED_EDGE('',*,*,#533,.F.);
#717=ORIENTED_EDGE('',*,*,#523,.F.);
#718=ORIENTED_EDGE('',*,*,#533,.T.);
#719=ORIENTED_EDGE('',*,*,#530,.T.);
#720=ORIENTED_EDGE('',*,*,#527,.T.);
#721=ORIENTED_EDGE('',*,*,#524,.T.);
#722=ORIENTED_EDGE('',*,*,#532,.F.);
#723=ORIENTED_EDGE('',*,*,#522,.F.);
#724=ORIENTED_EDGE('',*,*,#526,.F.);
#725=ORIENTED_EDGE('',*,*,#529,.F.);
#726=ORIENTED_EDGE('',*,*,#534,.T.);
#727=ORIENTED_EDGE('',*,*,#535,.T.);
#728=ORIENTED_EDGE('',*,*,#536,.F.);
#729=ORIENTED_EDGE('',*,*,#537,.F.);
#730=ORIENTED_EDGE('',*,*,#538,.T.);
#731=ORIENTED_EDGE('',*,*,#537,.T.);
#732=ORIENTED_EDGE('',*,*,#539,.F.);
#733=ORIENTED_EDGE('',*,*,#540,.F.);
#734=ORIENTED_EDGE('',*,*,#541,.T.);
#735=ORIENTED_EDGE('',*,*,#540,.T.);
#736=ORIENTED_EDGE('',*,*,#542,.F.);
#737=ORIENTED_EDGE('',*,*,#543,.F.);
#738=ORIENTED_EDGE('',*,*,#544,.T.);
#739=ORIENTED_EDGE('',*,*,#543,.T.);
#740=ORIENTED_EDGE('',*,*,#545,.F.);
#741=ORIENTED_EDGE('',*,*,#535,.F.);
#742=ORIENTED_EDGE('',*,*,#545,.T.);
#743=ORIENTED_EDGE('',*,*,#542,.T.);
#744=ORIENTED_EDGE('',*,*,#539,.T.);
#745=ORIENTED_EDGE('',*,*,#536,.T.);
#746=ORIENTED_EDGE('',*,*,#544,.F.);
#747=ORIENTED_EDGE('',*,*,#534,.F.);
#748=ORIENTED_EDGE('',*,*,#538,.F.);
#749=ORIENTED_EDGE('',*,*,#541,.F.);
#750=ORIENTED_EDGE('',*,*,#546,.T.);
#751=ORIENTED_EDGE('',*,*,#547,.T.);
#752=ORIENTED_EDGE('',*,*,#548,.F.);
#753=ORIENTED_EDGE('',*,*,#549,.F.);
#754=ORIENTED_EDGE('',*,*,#550,.T.);
#755=ORIENTED_EDGE('',*,*,#549,.T.);
#756=ORIENTED_EDGE('',*,*,#551,.F.);
#757=ORIENTED_EDGE('',*,*,#552,.F.);
#758=ORIENTED_EDGE('',*,*,#553,.T.);
#759=ORIENTED_EDGE('',*,*,#552,.T.);
#760=ORIENTED_EDGE('',*,*,#554,.F.);
#761=ORIENTED_EDGE('',*,*,#555,.F.);
#762=ORIENTED_EDGE('',*,*,#556,.T.);
#763=ORIENTED_EDGE('',*,*,#555,.T.);
#764=ORIENTED_EDGE('',*,*,#557,.F.);
#765=ORIENTED_EDGE('',*,*,#547,.F.);
#766=ORIENTED_EDGE('',*,*,#557,.T.);
#767=ORIENTED_EDGE('',*,*,#554,.T.);
#768=ORIENTED_EDGE('',*,*,#551,.T.);
#769=ORIENTED_EDGE('',*,*,#548,.T.);
#770=ORIENTED_EDGE('',*,*,#556,.F.);
#771=ORIENTED_EDGE('',*,*,#546,.F.);
#772=ORIENTED_EDGE('',*,*,#550,.F.);
#773=ORIENTED_EDGE('',*,*,#553,.F.);
#774=CYLINDRICAL_SURFACE('',#844,1.6);
#775=CYLINDRICAL_SURFACE('',#855,1.6);
#776=CYLINDRICAL_SURFACE('',#866,1.6);
#777=CYLINDRICAL_SURFACE('',#867,1.6);
#778=CYLINDRICAL_SURFACE('',#870,1.6);
#779=CYLINDRICAL_SURFACE('',#871,1.6);
#780=CYLINDRICAL_SURFACE('',#872,1.6);
#781=CYLINDRICAL_SURFACE('',#873,1.6);
#782=ADVANCED_FACE('',(#73),#774,.F.);
#783=ADVANCED_FACE('',(#74,#21,#22,#23,#24,#25,#26,#27),#36,.T.);
#784=ADVANCED_FACE('',(#75),#775,.F.);
#785=ADVANCED_FACE('',(#76,#28,#29,#30,#31,#32,#33,#34),#37,.F.);
#786=ADVANCED_FACE('',(#77),#38,.F.);
#787=ADVANCED_FACE('',(#78),#39,.F.);
#788=ADVANCED_FACE('',(#79),#776,.F.);
#789=ADVANCED_FACE('',(#80),#777,.F.);
#790=ADVANCED_FACE('',(#81),#40,.F.);
#791=ADVANCED_FACE('',(#82),#41,.F.);
#792=ADVANCED_FACE('',(#83),#778,.F.);
#793=ADVANCED_FACE('',(#84),#779,.F.);
#794=ADVANCED_FACE('',(#85),#780,.F.);
#795=ADVANCED_FACE('',(#86),#781,.F.);
#796=ADVANCED_FACE('',(#87),#42,.F.);
#797=ADVANCED_FACE('',(#88),#43,.F.);
#798=ADVANCED_FACE('',(#89),#44,.F.);
#799=ADVANCED_FACE('',(#90),#45,.F.);
#800=ADVANCED_FACE('',(#91),#46,.F.);
#801=ADVANCED_FACE('',(#92),#47,.F.);
#802=ADVANCED_FACE('',(#93),#48,.F.);
#803=ADVANCED_FACE('',(#94),#49,.F.);
#804=ADVANCED_FACE('',(#95,#35),#50,.F.);
#805=ADVANCED_FACE('',(#96),#51,.T.);
#806=ADVANCED_FACE('',(#97),#52,.T.);
#807=ADVANCED_FACE('',(#98),#53,.T.);
#808=ADVANCED_FACE('',(#99),#54,.T.);
#809=ADVANCED_FACE('',(#100),#55,.T.);
#810=ADVANCED_FACE('',(#101),#56,.T.);
#811=ADVANCED_FACE('',(#102),#57,.T.);
#812=ADVANCED_FACE('',(#103),#58,.T.);
#813=ADVANCED_FACE('',(#104),#59,.T.);
#814=ADVANCED_FACE('',(#105),#60,.F.);
#815=ADVANCED_FACE('',(#106),#61,.T.);
#816=ADVANCED_FACE('',(#107),#62,.T.);
#817=ADVANCED_FACE('',(#108),#63,.T.);
#818=ADVANCED_FACE('',(#109),#64,.T.);
#819=ADVANCED_FACE('',(#110),#65,.T.);
#820=ADVANCED_FACE('',(#111),#66,.F.);
#821=ADVANCED_FACE('',(#112),#67,.T.);
#822=ADVANCED_FACE('',(#113),#68,.T.);
#823=ADVANCED_FACE('',(#114),#69,.T.);
#824=ADVANCED_FACE('',(#115),#70,.T.);
#825=ADVANCED_FACE('',(#116),#71,.T.);
#826=ADVANCED_FACE('',(#117),#72,.F.);
#827=CLOSED_SHELL('',(#782,#783,#784,#785,#786,#787,#788,#789,#790,#791,
#792,#793,#794,#795,#796,#797,#798,#799,#800,#801,#802,#803,#804,#805,#806,
#807,#808));
#828=CLOSED_SHELL('',(#809,#810,#811,#812,#813,#814));
#829=CLOSED_SHELL('',(#815,#816,#817,#818,#819,#820));
#830=CLOSED_SHELL('',(#821,#822,#823,#824,#825,#826));
#831=DERIVED_UNIT_ELEMENT(#833,1.);
#832=DERIVED_UNIT_ELEMENT(#1352,-3.);
#833=(
MASS_UNIT()
NAMED_UNIT(*)
SI_UNIT(.KILO.,.GRAM.)
);
#834=DERIVED_UNIT((#831,#832));
#835=MEASURE_REPRESENTATION_ITEM('density measure',
POSITIVE_RATIO_MEASURE(7850.),#834);
#836=PROPERTY_DEFINITION_REPRESENTATION(#841,#838);
#837=PROPERTY_DEFINITION_REPRESENTATION(#842,#839);
#838=REPRESENTATION('material name',(#840),#1349);
#839=REPRESENTATION('density',(#835),#1349);
#840=DESCRIPTIVE_REPRESENTATION_ITEM('Steel','Steel');
#841=PROPERTY_DEFINITION('material property','material name',#1359);
#842=PROPERTY_DEFINITION('material property','density of part',#1359);
#843=AXIS2_PLACEMENT_3D('',#1121,#905,#906);
#844=AXIS2_PLACEMENT_3D('',#1122,#907,#908);
#845=AXIS2_PLACEMENT_3D('',#1127,#910,#911);
#846=AXIS2_PLACEMENT_3D('',#1130,#913,#914);
#847=AXIS2_PLACEMENT_3D('',#1131,#915,#916);
#848=AXIS2_PLACEMENT_3D('',#1142,#921,#922);
#849=AXIS2_PLACEMENT_3D('',#1146,#924,#925);
#850=AXIS2_PLACEMENT_3D('',#1149,#927,#928);
#851=AXIS2_PLACEMENT_3D('',#1151,#929,#930);
#852=AXIS2_PLACEMENT_3D('',#1153,#931,#932);
#853=AXIS2_PLACEMENT_3D('',#1155,#933,#934);
#854=AXIS2_PLACEMENT_3D('',#1167,#940,#941);
#855=AXIS2_PLACEMENT_3D('',#1169,#943,#944);
#856=AXIS2_PLACEMENT_3D('',#1174,#947,#948);
#857=AXIS2_PLACEMENT_3D('',#1175,#949,#950);
#858=AXIS2_PLACEMENT_3D('',#1187,#957,#958);
#859=AXIS2_PLACEMENT_3D('',#1189,#959,#960);
#860=AXIS2_PLACEMENT_3D('',#1191,#961,#962);
#861=AXIS2_PLACEMENT_3D('',#1193,#963,#964);
#862=AXIS2_PLACEMENT_3D('',#1204,#969,#970);
#863=AXIS2_PLACEMENT_3D('',#1208,#972,#973);
#864=AXIS2_PLACEMENT_3D('',#1210,#975,#976);
#865=AXIS2_PLACEMENT_3D('',#1211,#977,#978);
#866=AXIS2_PLACEMENT_3D('',#1212,#979,#980);
#867=AXIS2_PLACEMENT_3D('',#1215,#983,#984);
#868=AXIS2_PLACEMENT_3D('',#1218,#987,#988);
#869=AXIS2_PLACEMENT_3D('',#1219,#989,#990);
#870=AXIS2_PLACEMENT_3D('',#1220,#991,#992);
#871=AXIS2_PLACEMENT_3D('',#1222,#994,#995);
#872=AXIS2_PLACEMENT_3D('',#1224,#997,#998);
#873=AXIS2_PLACEMENT_3D('',#1226,#1000,#1001);
#874=AXIS2_PLACEMENT_3D('',#1228,#1003,#1004);
#875=AXIS2_PLACEMENT_3D('',#1234,#1008,#1009);
#876=AXIS2_PLACEMENT_3D('',#1238,#1012,#1013);
#877=AXIS2_PLACEMENT_3D('',#1242,#1016,#1017);
#878=AXIS2_PLACEMENT_3D('',#1244,#1019,#1020);
#879=AXIS2_PLACEMENT_3D('',#1250,#1024,#1025);
#880=AXIS2_PLACEMENT_3D('',#1254,#1028,#1029);
#881=AXIS2_PLACEMENT_3D('',#1258,#1032,#1033);
#882=AXIS2_PLACEMENT_3D('',#1260,#1035,#1036);
#883=AXIS2_PLACEMENT_3D('',#1261,#1037,#1038);
#884=AXIS2_PLACEMENT_3D('',#1264,#1041,#1042);
#885=AXIS2_PLACEMENT_3D('',#1266,#1044,#1045);
#886=AXIS2_PLACEMENT_3D('',#1268,#1047,#1048);
#887=AXIS2_PLACEMENT_3D('',#1269,#1049,#1050);
#888=AXIS2_PLACEMENT_3D('',#1278,#1055,#1056);
#889=AXIS2_PLACEMENT_3D('',#1284,#1060,#1061);
#890=AXIS2_PLACEMENT_3D('',#1290,#1065,#1066);
#891=AXIS2_PLACEMENT_3D('',#1293,#1069,#1070);
#892=AXIS2_PLACEMENT_3D('',#1294,#1071,#1072);
#893=AXIS2_PLACEMENT_3D('',#1295,#1073,#1074);
#894=AXIS2_PLACEMENT_3D('',#1304,#1079,#1080);
#895=AXIS2_PLACEMENT_3D('',#1310,#1084,#1085);
#896=AXIS2_PLACEMENT_3D('',#1316,#1089,#1090);
#897=AXIS2_PLACEMENT_3D('',#1319,#1093,#1094);
#898=AXIS2_PLACEMENT_3D('',#1320,#1095,#1096);
#899=AXIS2_PLACEMENT_3D('',#1321,#1097,#1098);
#900=AXIS2_PLACEMENT_3D('',#1330,#1103,#1104);
#901=AXIS2_PLACEMENT_3D('',#1336,#1108,#1109);
#902=AXIS2_PLACEMENT_3D('',#1342,#1113,#1114);
#903=AXIS2_PLACEMENT_3D('',#1345,#1117,#1118);
#904=AXIS2_PLACEMENT_3D('',#1346,#1119,#1120);
#905=DIRECTION('axis',(0.,0.,1.));
#906=DIRECTION('refdir',(1.,0.,0.));
#907=DIRECTION('center_axis',(0.,0.,1.));
#908=DIRECTION('ref_axis',(1.,0.,0.));
#909=DIRECTION('',(0.,0.,1.));
#910=DIRECTION('center_axis',(0.,0.,1.));
#911=DIRECTION('ref_axis',(1.,0.,0.));
#912=DIRECTION('',(0.,0.,1.));
#913=DIRECTION('center_axis',(0.,0.,-1.));
#914=DIRECTION('ref_axis',(1.,0.,0.));
#915=DIRECTION('center_axis',(0.,0.,1.));
#916=DIRECTION('ref_axis',(1.,0.,0.));
#917=DIRECTION('',(0.,1.,0.));
#918=DIRECTION('',(-1.,0.,0.));
#919=DIRECTION('',(0.,-1.,0.));
#920=DIRECTION('',(1.,0.,0.));
#921=DIRECTION('center_axis',(0.,0.,-1.));
#922=DIRECTION('ref_axis',(1.,0.,0.));
#923=DIRECTION('',(-1.,0.,0.));
#924=DIRECTION('center_axis',(0.,0.,-1.));
#925=DIRECTION('ref_axis',(1.,0.,0.));
#926=DIRECTION('',(1.,0.,0.));
#927=DIRECTION('center_axis',(0.,0.,-1.));
#928=DIRECTION('ref_axis',(1.,0.,0.));
#929=DIRECTION('center_axis',(0.,0.,-1.));
#930=DIRECTION('ref_axis',(1.,0.,0.));
#931=DIRECTION('center_axis',(0.,0.,-1.));
#932=DIRECTION('ref_axis',(1.,0.,0.));
#933=DIRECTION('center_axis',(0.,0.,-1.));
#934=DIRECTION('ref_axis',(1.,0.,0.));
#935=DIRECTION('',(1.,0.,0.));
#936=DIRECTION('',(0.,-1.,0.));
#937=DIRECTION('',(-1.,0.,0.));
#938=DIRECTION('',(0.,1.,0.));
#939=DIRECTION('',(-1.,0.,0.));
#940=DIRECTION('center_axis',(0.,0.,-1.));
#941=DIRECTION('ref_axis',(1.,0.,0.));
#942=DIRECTION('',(1.,0.,0.));
#943=DIRECTION('center_axis',(0.,0.,1.));
#944=DIRECTION('ref_axis',(-1.,1.22464679914735E-16,0.));
#945=DIRECTION('',(0.,0.,1.));
#946=DIRECTION('',(0.,0.,1.));
#947=DIRECTION('center_axis',(0.,0.,1.));
#948=DIRECTION('ref_axis',(1.,0.,0.));
#949=DIRECTION('center_axis',(0.,0.,1.));
#950=DIRECTION('ref_axis',(1.,0.,0.));
#951=DIRECTION('',(0.,1.,0.));
#952=DIRECTION('',(1.,0.,0.));
#953=DIRECTION('',(0.,-1.,0.));
#954=DIRECTION('',(-1.,0.,0.));
#955=DIRECTION('',(-1.,0.,0.));
#956=DIRECTION('',(1.,0.,0.));
#957=DIRECTION('center_axis',(0.,0.,1.));
#958=DIRECTION('ref_axis',(1.,0.,0.));
#959=DIRECTION('center_axis',(0.,0.,1.));
#960=DIRECTION('ref_axis',(1.,0.,0.));
#961=DIRECTION('center_axis',(0.,0.,1.));
#962=DIRECTION('ref_axis',(1.,0.,0.));
#963=DIRECTION('center_axis',(0.,0.,1.));
#964=DIRECTION('ref_axis',(1.,0.,0.));
#965=DIRECTION('',(1.,0.,0.));
#966=DIRECTION('',(0.,1.,0.));
#967=DIRECTION('',(-1.,0.,0.));
#968=DIRECTION('',(0.,-1.,0.));
#969=DIRECTION('center_axis',(0.,0.,1.));
#970=DIRECTION('ref_axis',(1.,0.,0.));
#971=DIRECTION('',(-1.,0.,0.));
#972=DIRECTION('center_axis',(0.,0.,1.));
#973=DIRECTION('ref_axis',(1.,0.,0.));
#974=DIRECTION('',(1.,0.,0.));
#975=DIRECTION('center_axis',(0.,1.,0.));
#976=DIRECTION('ref_axis',(-1.,0.,0.));
#977=DIRECTION('center_axis',(0.,-1.,0.));
#978=DIRECTION('ref_axis',(1.,0.,0.));
#979=DIRECTION('center_axis',(0.,0.,1.));
#980=DIRECTION('ref_axis',(1.,0.,0.));
#981=DIRECTION('',(0.,0.,1.));
#982=DIRECTION('',(0.,0.,1.));
#983=DIRECTION('center_axis',(0.,0.,1.));
#984=DIRECTION('ref_axis',(-1.,1.22464679914735E-16,0.));
#985=DIRECTION('',(0.,0.,1.));
#986=DIRECTION('',(0.,0.,1.));
#987=DIRECTION('center_axis',(0.,1.,0.));
#988=DIRECTION('ref_axis',(-1.,0.,0.));
#989=DIRECTION('center_axis',(0.,-1.,0.));
#990=DIRECTION('ref_axis',(1.,0.,0.));
#991=DIRECTION('center_axis',(0.,0.,1.));
#992=DIRECTION('ref_axis',(1.,0.,0.));
#993=DIRECTION('',(0.,0.,1.));
#994=DIRECTION('center_axis',(0.,0.,1.));
#995=DIRECTION('ref_axis',(1.,0.,0.));
#996=DIRECTION('',(0.,0.,1.));
#997=DIRECTION('center_axis',(0.,0.,1.));
#998=DIRECTION('ref_axis',(1.,0.,0.));
#999=DIRECTION('',(0.,0.,1.));
#1000=DIRECTION('center_axis',(0.,0.,1.));
#1001=DIRECTION('ref_axis',(1.,0.,0.));
#1002=DIRECTION('',(0.,0.,1.));
#1003=DIRECTION('center_axis',(0.,1.,0.));
#1004=DIRECTION('ref_axis',(-1.,0.,0.));
#1005=DIRECTION('',(1.,0.,0.));
#1006=DIRECTION('',(0.,0.,1.));
#1007=DIRECTION('',(0.,0.,1.));
#1008=DIRECTION('center_axis',(1.,0.,0.));
#1009=DIRECTION('ref_axis',(0.,1.,0.));
#1010=DIRECTION('',(0.,-1.,0.));
#1011=DIRECTION('',(0.,0.,1.));
#1012=DIRECTION('center_axis',(0.,-1.,0.));
#1013=DIRECTION('ref_axis',(1.,0.,0.));
#1014=DIRECTION('',(-1.,0.,0.));
#1015=DIRECTION('',(0.,0.,1.));
#1016=DIRECTION('center_axis',(-1.,0.,0.));
#1017=DIRECTION('ref_axis',(0.,-1.,0.));
#1018=DIRECTION('',(0.,1.,0.));
#1019=DIRECTION('center_axis',(0.,1.,0.));
#1020=DIRECTION('ref_axis',(1.,0.,0.));
#1021=DIRECTION('',(0.,0.,-1.));
#1022=DIRECTION('',(1.,0.,0.));
#1023=DIRECTION('',(0.,0.,-1.));
#1024=DIRECTION('center_axis',(-1.,0.,0.));
#1025=DIRECTION('ref_axis',(0.,1.,0.));
#1026=DIRECTION('',(0.,0.,-1.));
#1027=DIRECTION('',(0.,1.,0.));
#1028=DIRECTION('center_axis',(0.,-1.,0.));
#1029=DIRECTION('ref_axis',(-1.,0.,0.));
#1030=DIRECTION('',(0.,0.,-1.));
#1031=DIRECTION('',(-1.,0.,0.));
#1032=DIRECTION('center_axis',(1.,0.,0.));
#1033=DIRECTION('ref_axis',(0.,-1.,0.));
#1034=DIRECTION('',(0.,-1.,0.));
#1035=DIRECTION('center_axis',(0.,0.,-1.));
#1036=DIRECTION('ref_axis',(-1.,0.,0.));
#1037=DIRECTION('center_axis',(0.,-1.,0.));
#1038=DIRECTION('ref_axis',(1.,0.,0.));
#1039=DIRECTION('',(0.,0.,1.));
#1040=DIRECTION('',(0.,0.,1.));
#1041=DIRECTION('center_axis',(-1.,0.,0.));
#1042=DIRECTION('ref_axis',(0.,-1.,0.));
#1043=DIRECTION('',(0.,0.,1.));
#1044=DIRECTION('center_axis',(0.,1.,0.));
#1045=DIRECTION('ref_axis',(-1.,0.,0.));
#1046=DIRECTION('',(0.,0.,1.));
#1047=DIRECTION('center_axis',(1.,0.,0.));
#1048=DIRECTION('ref_axis',(0.,1.,0.));
#1049=DIRECTION('center_axis',(0.,-1.,0.));
#1050=DIRECTION('ref_axis',(1.,0.,0.));
#1051=DIRECTION('',(1.,0.,0.));
#1052=DIRECTION('',(0.,0.,1.));
#1053=DIRECTION('',(1.,0.,0.));
#1054=DIRECTION('',(0.,0.,1.));
#1055=DIRECTION('center_axis',(-1.,0.,0.));
#1056=DIRECTION('ref_axis',(0.,-1.,0.));
#1057=DIRECTION('',(0.,-1.,0.));
#1058=DIRECTION('',(0.,-1.,0.));
#1059=DIRECTION('',(0.,0.,1.));
#1060=DIRECTION('center_axis',(0.,1.,0.));
#1061=DIRECTION('ref_axis',(-1.,0.,0.));
#1062=DIRECTION('',(-1.,0.,0.));
#1063=DIRECTION('',(-1.,0.,0.));
#1064=DIRECTION('',(0.,0.,1.));
#1065=DIRECTION('center_axis',(1.,0.,0.));
#1066=DIRECTION('ref_axis',(0.,1.,0.));
#1067=DIRECTION('',(0.,1.,0.));
#1068=DIRECTION('',(0.,1.,0.));
#1069=DIRECTION('center_axis',(0.,0.,1.));
#1070=DIRECTION('ref_axis',(1.,0.,0.));
#1071=DIRECTION('center_axis',(0.,0.,1.));
#1072=DIRECTION('ref_axis',(1.,0.,0.));
#1073=DIRECTION('center_axis',(0.,-1.,0.));
#1074=DIRECTION('ref_axis',(1.,0.,0.));
#1075=DIRECTION('',(1.,0.,0.));
#1076=DIRECTION('',(0.,0.,1.));
#1077=DIRECTION('',(1.,0.,0.));
#1078=DIRECTION('',(0.,0.,1.));
#1079=DIRECTION('center_axis',(-1.,0.,0.));
#1080=DIRECTION('ref_axis',(0.,-1.,0.));
#1081=DIRECTION('',(0.,-1.,0.));
#1082=DIRECTION('',(0.,-1.,0.));
#1083=DIRECTION('',(0.,0.,1.));
#1084=DIRECTION('center_axis',(0.,1.,0.));
#1085=DIRECTION('ref_axis',(-1.,0.,0.));
#1086=DIRECTION('',(-1.,0.,0.));
#1087=DIRECTION('',(-1.,0.,0.));
#1088=DIRECTION('',(0.,0.,1.));
#1089=DIRECTION('center_axis',(1.,0.,0.));
#1090=DIRECTION('ref_axis',(0.,1.,0.));
#1091=DIRECTION('',(0.,1.,0.));
#1092=DIRECTION('',(0.,1.,0.));
#1093=DIRECTION('center_axis',(0.,0.,1.));
#1094=DIRECTION('ref_axis',(1.,0.,0.));
#1095=DIRECTION('center_axis',(0.,0.,1.));
#1096=DIRECTION('ref_axis',(1.,0.,0.));
#1097=DIRECTION('center_axis',(0.,-1.,0.));
#1098=DIRECTION('ref_axis',(1.,0.,0.));
#1099=DIRECTION('',(1.,0.,0.));
#1100=DIRECTION('',(0.,0.,1.));
#1101=DIRECTION('',(1.,0.,0.));
#1102=DIRECTION('',(0.,0.,1.));
#1103=DIRECTION('center_axis',(-1.,0.,0.));
#1104=DIRECTION('ref_axis',(0.,-1.,0.));
#1105=DIRECTION('',(0.,-1.,0.));
#1106=DIRECTION('',(0.,-1.,0.));
#1107=DIRECTION('',(0.,0.,1.));
#1108=DIRECTION('center_axis',(0.,1.,0.));
#1109=DIRECTION('ref_axis',(-1.,0.,0.));
#1110=DIRECTION('',(-1.,0.,0.));
#1111=DIRECTION('',(-1.,0.,0.));
#1112=DIRECTION('',(0.,0.,1.));
#1113=DIRECTION('center_axis',(1.,0.,0.));
#1114=DIRECTION('ref_axis',(0.,1.,0.));
#1115=DIRECTION('',(0.,1.,0.));
#1116=DIRECTION('',(0.,1.,0.));
#1117=DIRECTION('center_axis',(0.,0.,1.));
#1118=DIRECTION('ref_axis',(1.,0.,0.));
#1119=DIRECTION('center_axis',(0.,0.,1.));
#1120=DIRECTION('ref_axis',(1.,0.,0.));
#1121=CARTESIAN_POINT('',(0.,0.,0.));
#1122=CARTESIAN_POINT('Origin',(26.,15.8,0.));
#1123=CARTESIAN_POINT('',(26.,17.4,0.));
#1124=CARTESIAN_POINT('',(26.,17.4,3.));
#1125=CARTESIAN_POINT('',(26.,17.4,0.));
#1126=CARTESIAN_POINT('',(26.,14.2,0.));
#1127=CARTESIAN_POINT('Origin',(26.,15.8,0.));
#1128=CARTESIAN_POINT('',(26.,14.2,3.));
#1129=CARTESIAN_POINT('',(26.,14.2,0.));
#1130=CARTESIAN_POINT('Origin',(26.,15.8,3.));
#1131=CARTESIAN_POINT('Origin',(0.,0.,3.));
#1132=CARTESIAN_POINT('',(44.,-18.8,3.));
#1133=CARTESIAN_POINT('',(44.,18.8,3.));
#1134=CARTESIAN_POINT('',(44.,-18.8,3.));
#1135=CARTESIAN_POINT('',(-44.,18.8,3.));
#1136=CARTESIAN_POINT('',(44.,18.8,3.));
#1137=CARTESIAN_POINT('',(-44.,-18.8,3.));
#1138=CARTESIAN_POINT('',(-44.,18.8,3.));
#1139=CARTESIAN_POINT('',(-44.,-18.8,3.));
#1140=CARTESIAN_POINT('',(-12.,17.4,3.));
#1141=CARTESIAN_POINT('',(-12.,14.2,3.));
#1142=CARTESIAN_POINT('Origin',(-12.,15.8,3.));
#1143=CARTESIAN_POINT('',(-26.,14.2,3.));
#1144=CARTESIAN_POINT('',(-13.,14.2,3.));
#1145=CARTESIAN_POINT('',(-26.,17.4,3.));
#1146=CARTESIAN_POINT('Origin',(-26.,15.8,3.));
#1147=CARTESIAN_POINT('',(-6.,17.4,3.));
#1148=CARTESIAN_POINT('',(37.4,14.8,3.));
#1149=CARTESIAN_POINT('Origin',(39.,14.8,3.));
#1150=CARTESIAN_POINT('',(37.4,-14.8,3.));
#1151=CARTESIAN_POINT('Origin',(39.,-14.8,3.));
#1152=CARTESIAN_POINT('',(-40.6,14.8,3.));
#1153=CARTESIAN_POINT('Origin',(-39.,14.8,3.));
#1154=CARTESIAN_POINT('',(-40.6,-14.8,3.));
#1155=CARTESIAN_POINT('Origin',(-39.,-14.8,3.));
#1156=CARTESIAN_POINT('',(-38.,12.8,3.));
#1157=CARTESIAN_POINT('',(38.,12.8,3.));
#1158=CARTESIAN_POINT('',(-19.,12.8,3.));
#1159=CARTESIAN_POINT('',(38.,-12.8,3.));
#1160=CARTESIAN_POINT('',(38.,6.4,3.));
#1161=CARTESIAN_POINT('',(-38.,-12.8,3.));
#1162=CARTESIAN_POINT('',(19.,-12.8,3.));
#1163=CARTESIAN_POINT('',(-38.,-6.4,3.));
#1164=CARTESIAN_POINT('',(12.,14.2,3.));
#1165=CARTESIAN_POINT('',(6.,14.2,3.));
#1166=CARTESIAN_POINT('',(12.,17.4,3.));
#1167=CARTESIAN_POINT('Origin',(12.,15.8,3.));
#1168=CARTESIAN_POINT('',(13.,17.4,3.));
#1169=CARTESIAN_POINT('Origin',(12.,15.8,0.));
#1170=CARTESIAN_POINT('',(12.,17.4,0.));
#1171=CARTESIAN_POINT('',(12.,17.4,0.));
#1172=CARTESIAN_POINT('',(12.,14.2,0.));
#1173=CARTESIAN_POINT('',(12.,14.2,0.));
#1174=CARTESIAN_POINT('Origin',(12.,15.8,0.));
#1175=CARTESIAN_POINT('Origin',(0.,0.,0.));
#1176=CARTESIAN_POINT('',(44.,-18.8,0.));
#1177=CARTESIAN_POINT('',(44.,18.8,0.));
#1178=CARTESIAN_POINT('',(44.,-18.8,0.));
#1179=CARTESIAN_POINT('',(-44.,-18.8,0.));
#1180=CARTESIAN_POINT('',(-44.,-18.8,0.));
#1181=CARTESIAN_POINT('',(-44.,18.8,0.));
#1182=CARTESIAN_POINT('',(-44.,18.8,0.));
#1183=CARTESIAN_POINT('',(44.,18.8,0.));
#1184=CARTESIAN_POINT('',(13.,17.4,0.));
#1185=CARTESIAN_POINT('',(6.,14.2,0.));
#1186=CARTESIAN_POINT('',(37.4,14.8,0.));
#1187=CARTESIAN_POINT('Origin',(39.,14.8,0.));
#1188=CARTESIAN_POINT('',(37.4,-14.8,0.));
#1189=CARTESIAN_POINT('Origin',(39.,-14.8,0.));
#1190=CARTESIAN_POINT('',(-40.6,14.8,0.));
#1191=CARTESIAN_POINT('Origin',(-39.,14.8,0.));
#1192=CARTESIAN_POINT('',(-40.6,-14.8,0.));
#1193=CARTESIAN_POINT('Origin',(-39.,-14.8,0.));
#1194=CARTESIAN_POINT('',(-11.,-6.,0.));
#1195=CARTESIAN_POINT('',(11.,-6.,0.));
#1196=CARTESIAN_POINT('',(-5.5,-6.,0.));
#1197=CARTESIAN_POINT('',(11.,6.,0.));
#1198=CARTESIAN_POINT('',(11.,-3.,0.));
#1199=CARTESIAN_POINT('',(-11.,6.,0.));
#1200=CARTESIAN_POINT('',(5.5,6.,0.));
#1201=CARTESIAN_POINT('',(-11.,3.,0.));
#1202=CARTESIAN_POINT('',(-12.,14.2,0.));
#1203=CARTESIAN_POINT('',(-12.,17.4,0.));
#1204=CARTESIAN_POINT('Origin',(-12.,15.8,0.));
#1205=CARTESIAN_POINT('',(-26.,17.4,0.));
#1206=CARTESIAN_POINT('',(-6.,17.4,0.));
#1207=CARTESIAN_POINT('',(-26.,14.2,0.));
#1208=CARTESIAN_POINT('Origin',(-26.,15.8,0.));
#1209=CARTESIAN_POINT('',(-13.,14.2,0.));
#1210=CARTESIAN_POINT('Origin',(26.,17.4,0.));
#1211=CARTESIAN_POINT('Origin',(12.,14.2,0.));
#1212=CARTESIAN_POINT('Origin',(-12.,15.8,0.));
#1213=CARTESIAN_POINT('',(-12.,17.4,0.));
#1214=CARTESIAN_POINT('',(-12.,14.2,0.));
#1215=CARTESIAN_POINT('Origin',(-26.,15.8,0.));
#1216=CARTESIAN_POINT('',(-26.,17.4,0.));
#1217=CARTESIAN_POINT('',(-26.,14.2,0.));
#1218=CARTESIAN_POINT('Origin',(-12.,17.4,0.));
#1219=CARTESIAN_POINT('Origin',(-26.,14.2,0.));
#1220=CARTESIAN_POINT('Origin',(39.,14.8,0.));
#1221=CARTESIAN_POINT('',(37.4,14.8,0.));
#1222=CARTESIAN_POINT('Origin',(39.,-14.8,0.));
#1223=CARTESIAN_POINT('',(37.4,-14.8,0.));
#1224=CARTESIAN_POINT('Origin',(-39.,14.8,0.));
#1225=CARTESIAN_POINT('',(-40.6,14.8,0.));
#1226=CARTESIAN_POINT('Origin',(-39.,-14.8,0.));
#1227=CARTESIAN_POINT('',(-40.6,-14.8,0.));
#1228=CARTESIAN_POINT('Origin',(11.,6.,0.));
#1229=CARTESIAN_POINT('',(-11.,6.,1.8));
#1230=CARTESIAN_POINT('',(11.,6.,1.8));
#1231=CARTESIAN_POINT('',(5.5,6.,1.8));
#1232=CARTESIAN_POINT('',(-11.,6.,0.));
#1233=CARTESIAN_POINT('',(11.,6.,0.));
#1234=CARTESIAN_POINT('Origin',(11.,-6.,0.));
#1235=CARTESIAN_POINT('',(11.,-6.,1.8));
#1236=CARTESIAN_POINT('',(11.,-3.,1.8));
#1237=CARTESIAN_POINT('',(11.,-6.,0.));
#1238=CARTESIAN_POINT('Origin',(-11.,-6.,0.));
#1239=CARTESIAN_POINT('',(-11.,-6.,1.8));
#1240=CARTESIAN_POINT('',(-5.5,-6.,1.8));
#1241=CARTESIAN_POINT('',(-11.,-6.,0.));
#1242=CARTESIAN_POINT('Origin',(-11.,6.,0.));
#1243=CARTESIAN_POINT('',(-11.,3.,1.8));
#1244=CARTESIAN_POINT('Origin',(-38.,12.8,3.));
#1245=CARTESIAN_POINT('',(-38.,12.8,1.8));
#1246=CARTESIAN_POINT('',(-38.,12.8,3.));
#1247=CARTESIAN_POINT('',(38.,12.8,1.8));
#1248=CARTESIAN_POINT('',(38.,12.8,1.8));
#1249=CARTESIAN_POINT('',(38.,12.8,3.));
#1250=CARTESIAN_POINT('Origin',(-38.,-12.8,3.));
#1251=CARTESIAN_POINT('',(-38.,-12.8,1.8));
#1252=CARTESIAN_POINT('',(-38.,-12.8,3.));
#1253=CARTESIAN_POINT('',(-38.,12.8,1.8));
#1254=CARTESIAN_POINT('Origin',(38.,-12.8,3.));
#1255=CARTESIAN_POINT('',(38.,-12.8,1.8));
#1256=CARTESIAN_POINT('',(38.,-12.8,3.));
#1257=CARTESIAN_POINT('',(-38.,-12.8,1.8));
#1258=CARTESIAN_POINT('Origin',(38.,12.8,3.));
#1259=CARTESIAN_POINT('',(38.,-12.8,1.8));
#1260=CARTESIAN_POINT('Origin',(0.,0.,1.8));
#1261=CARTESIAN_POINT('Origin',(-44.,-18.8,0.));
#1262=CARTESIAN_POINT('',(44.,-18.8,0.));
#1263=CARTESIAN_POINT('',(-44.,-18.8,0.));
#1264=CARTESIAN_POINT('Origin',(-44.,18.8,0.));
#1265=CARTESIAN_POINT('',(-44.,18.8,0.));
#1266=CARTESIAN_POINT('Origin',(44.,18.8,0.));
#1267=CARTESIAN_POINT('',(44.,18.8,0.));
#1268=CARTESIAN_POINT('Origin',(44.,-18.8,0.));
#1269=CARTESIAN_POINT('Origin',(-38.,13.6,0.));
#1270=CARTESIAN_POINT('',(-38.,13.6,0.));
#1271=CARTESIAN_POINT('',(38.,13.6,0.));
#1272=CARTESIAN_POINT('',(-38.,13.6,0.));
#1273=CARTESIAN_POINT('',(38.,13.6,1.4));
#1274=CARTESIAN_POINT('',(38.,13.6,0.));
#1275=CARTESIAN_POINT('',(-38.,13.6,1.4));
#1276=CARTESIAN_POINT('',(-38.,13.6,1.4));
#1277=CARTESIAN_POINT('',(-38.,13.6,0.));
#1278=CARTESIAN_POINT('Origin',(-38.,16.,0.));
#1279=CARTESIAN_POINT('',(-38.,16.,0.));
#1280=CARTESIAN_POINT('',(-38.,16.,0.));
#1281=CARTESIAN_POINT('',(-38.,16.,1.4));
#1282=CARTESIAN_POINT('',(-38.,16.,1.4));
#1283=CARTESIAN_POINT('',(-38.,16.,0.));
#1284=CARTESIAN_POINT('Origin',(38.,16.,0.));
#1285=CARTESIAN_POINT('',(38.,16.,0.));
#1286=CARTESIAN_POINT('',(38.,16.,0.));
#1287=CARTESIAN_POINT('',(38.,16.,1.4));
#1288=CARTESIAN_POINT('',(38.,16.,1.4));
#1289=CARTESIAN_POINT('',(38.,16.,0.));
#1290=CARTESIAN_POINT('Origin',(38.,13.6,0.));
#1291=CARTESIAN_POINT('',(38.,13.6,0.));
#1292=CARTESIAN_POINT('',(38.,13.6,1.4));
#1293=CARTESIAN_POINT('Origin',(0.,14.8,1.4));
#1294=CARTESIAN_POINT('Origin',(0.,14.8,0.));
#1295=CARTESIAN_POINT('Origin',(-38.,-16.,0.));
#1296=CARTESIAN_POINT('',(-38.,-16.,0.));
#1297=CARTESIAN_POINT('',(38.,-16.,0.));
#1298=CARTESIAN_POINT('',(-38.,-16.,0.));
#1299=CARTESIAN_POINT('',(38.,-16.,1.4));
#1300=CARTESIAN_POINT('',(38.,-16.,0.));
#1301=CARTESIAN_POINT('',(-38.,-16.,1.4));
#1302=CARTESIAN_POINT('',(-38.,-16.,1.4));
#1303=CARTESIAN_POINT('',(-38.,-16.,0.));
#1304=CARTESIAN_POINT('Origin',(-38.,-13.6,0.));
#1305=CARTESIAN_POINT('',(-38.,-13.6,0.));
#1306=CARTESIAN_POINT('',(-38.,-13.6,0.));
#1307=CARTESIAN_POINT('',(-38.,-13.6,1.4));
#1308=CARTESIAN_POINT('',(-38.,-13.6,1.4));
#1309=CARTESIAN_POINT('',(-38.,-13.6,0.));
#1310=CARTESIAN_POINT('Origin',(38.,-13.6,0.));
#1311=CARTESIAN_POINT('',(38.,-13.6,0.));
#1312=CARTESIAN_POINT('',(38.,-13.6,0.));
#1313=CARTESIAN_POINT('',(38.,-13.6,1.4));
#1314=CARTESIAN_POINT('',(38.,-13.6,1.4));
#1315=CARTESIAN_POINT('',(38.,-13.6,0.));
#1316=CARTESIAN_POINT('Origin',(38.,-16.,0.));
#1317=CARTESIAN_POINT('',(38.,-16.,0.));
#1318=CARTESIAN_POINT('',(38.,-16.,1.4));
#1319=CARTESIAN_POINT('Origin',(0.,-14.8,1.4));
#1320=CARTESIAN_POINT('Origin',(0.,-14.8,0.));
#1321=CARTESIAN_POINT('Origin',(-41.2,-12.8,0.));
#1322=CARTESIAN_POINT('',(-41.2,-12.8,0.));
#1323=CARTESIAN_POINT('',(-38.8,-12.8,0.));
#1324=CARTESIAN_POINT('',(-41.2,-12.8,0.));
#1325=CARTESIAN_POINT('',(-38.8,-12.8,1.4));
#1326=CARTESIAN_POINT('',(-38.8,-12.8,0.));
#1327=CARTESIAN_POINT('',(-41.2,-12.8,1.4));
#1328=CARTESIAN_POINT('',(-41.2,-12.8,1.4));
#1329=CARTESIAN_POINT('',(-41.2,-12.8,0.));
#1330=CARTESIAN_POINT('Origin',(-41.2,12.8,0.));
#1331=CARTESIAN_POINT('',(-41.2,12.8,0.));
#1332=CARTESIAN_POINT('',(-41.2,12.8,0.));
#1333=CARTESIAN_POINT('',(-41.2,12.8,1.4));
#1334=CARTESIAN_POINT('',(-41.2,12.8,1.4));
#1335=CARTESIAN_POINT('',(-41.2,12.8,0.));
#1336=CARTESIAN_POINT('Origin',(-38.8,12.8,0.));
#1337=CARTESIAN_POINT('',(-38.8,12.8,0.));
#1338=CARTESIAN_POINT('',(-38.8,12.8,0.));
#1339=CARTESIAN_POINT('',(-38.8,12.8,1.4));
#1340=CARTESIAN_POINT('',(-38.8,12.8,1.4));
#1341=CARTESIAN_POINT('',(-38.8,12.8,0.));
#1342=CARTESIAN_POINT('Origin',(-38.8,-12.8,0.));
#1343=CARTESIAN_POINT('',(-38.8,-12.8,0.));
#1344=CARTESIAN_POINT('',(-38.8,-12.8,1.4));
#1345=CARTESIAN_POINT('Origin',(-40.,0.,1.4));
#1346=CARTESIAN_POINT('Origin',(-40.,0.,0.));
#1347=UNCERTAINTY_MEASURE_WITH_UNIT(LENGTH_MEASURE(0.01),#1351,
'DISTANCE_ACCURACY_VALUE',
'Maximum model space distance between geometric entities at asserted c
onnectivities');
#1348=UNCERTAINTY_MEASURE_WITH_UNIT(LENGTH_MEASURE(0.01),#1351,
'DISTANCE_ACCURACY_VALUE',
'Maximum model space distance between geometric entities at asserted c
onnectivities');
#1349=(
GEOMETRIC_REPRESENTATION_CONTEXT(3)
GLOBAL_UNCERTAINTY_ASSIGNED_CONTEXT((#1347))
GLOBAL_UNIT_ASSIGNED_CONTEXT((#1351,#1353,#1354))
REPRESENTATION_CONTEXT('','3D')
);
#1350=(
GEOMETRIC_REPRESENTATION_CONTEXT(3)
GLOBAL_UNCERTAINTY_ASSIGNED_CONTEXT((#1348))
GLOBAL_UNIT_ASSIGNED_CONTEXT((#1351,#1353,#1354))
REPRESENTATION_CONTEXT('','3D')
);
#1351=(
LENGTH_UNIT()
NAMED_UNIT(*)
SI_UNIT(.MILLI.,.METRE.)
);
#1352=(
LENGTH_UNIT()
NAMED_UNIT(*)
SI_UNIT($,.METRE.)
);
#1353=(
NAMED_UNIT(*)
PLANE_ANGLE_UNIT()
SI_UNIT($,.RADIAN.)
);
#1354=(
NAMED_UNIT(*)
SI_UNIT($,.STERADIAN.)
SOLID_ANGLE_UNIT()
);
#1355=SHAPE_DEFINITION_REPRESENTATION(#1356,#1357);
#1356=PRODUCT_DEFINITION_SHAPE('',$,#1359);
#1357=SHAPE_REPRESENTATION('',(#843),#1349);
#1358=PRODUCT_DEFINITION_CONTEXT('part definition',#1363,'design');
#1359=PRODUCT_DEFINITION('(Unsaved)','(Unsaved)',#1360,#1358);
#1360=PRODUCT_DEFINITION_FORMATION('',$,#1365);
#1361=PRODUCT_RELATED_PRODUCT_CATEGORY('(Unsaved)','(Unsaved)',(#1365));
#1362=APPLICATION_PROTOCOL_DEFINITION('international standard',
'automotive_design',2009,#1363);
#1363=APPLICATION_CONTEXT(
'Core Data for Automotive Mechanical Design Process');
#1364=PRODUCT_CONTEXT('part definition',#1363,'mechanical');
#1365=PRODUCT('(Unsaved)','(Unsaved)',$,(#1364));
#1366=PRESENTATION_STYLE_ASSIGNMENT((#1367));
#1367=SURFACE_STYLE_USAGE(.BOTH.,#1368);
#1368=SURFACE_SIDE_STYLE('',(#1369));
#1369=SURFACE_STYLE_FILL_AREA(#1370);
#1370=FILL_AREA_STYLE('Steel - Satin',(#1371));
#1371=FILL_AREA_STYLE_COLOUR('Steel - Satin',#1372);
#1372=COLOUR_RGB('Steel - Satin',0.627450980392157,0.627450980392157,0.627450980392157);
ENDSEC;
END-ISO-10303-21;
